<?xml version="1.0" encoding="utf-8"?>
<!-- Generator: Adobe Illustrator 15.1.0, SVG Export Plug-In . SVG Version: 6.00 Build 0)  -->
<!DOCTYPE svg PUBLIC "-//W3C//DTD SVG 1.1//EN" "http://www.w3.org/Graphics/SVG/1.1/DTD/svg11.dtd">
<svg version="1.1" id="Layer_1" xmlns="http://www.w3.org/2000/svg" xmlns:xlink="http://www.w3.org/1999/xlink" x="0px" y="0px"
	 width="612px" height="792px" viewBox="0 0 612 792" enable-background="new 0 0 612 792" xml:space="preserve">
<path fill="#ffffff" fill-rule="evenodd" clip-rule="evenodd" stroke="#ffffff" stroke-width="2.9999" stroke-linecap="round" stroke-linejoin="round" stroke-miterlimit="22.9256" d="
	M267.632,51.108c-13.21,11.583-27.592,33.003-35.242,59.777c-7.65,26.775-8.568,58.905-4.36,81.778
	c4.208,22.873,13.541,36.49,23.869,46.665c10.327,10.174,21.649,16.906,28.84,22.72c7.191,5.813,10.251,10.71,11.475,28.611
	c1.224,17.901,0.612,48.807-3.366,99.602c-3.978,50.795-11.323,121.481-17.749,177.02c-6.427,55.538-11.934,95.93-10.098,125
	c1.835,29.069,11.016,46.817,23.868,56.608c13.318,10.148,29.945,10.148,43.263,0c12.852-9.791,22.032-27.539,23.867-56.608
	c1.837-29.07-3.671-69.462-10.098-125c-6.426-55.538-13.771-126.225-17.749-177.02c-3.979-50.795-4.59-81.701-3.366-99.602
	c1.225-17.901,4.284-22.797,11.476-28.611c7.19-5.814,18.513-12.546,28.84-22.72c10.328-10.175,19.661-23.792,23.868-46.665
	c4.208-22.873,3.291-55.003-4.359-81.778c-7.65-26.774-22.032-48.194-35.242-59.777C323.155,31.631,289.845,31.631,267.632,51.108z"
	/>
</svg>
